<svg width="36" height="36" viewBox="0 0 36 36" fill="none" xmlns="http://www.w3.org/2000/svg">
<rect width="36" height="36" fill="#F5F5F5"/>
<g id="06 Icons">
<path d="M-1260 -555C-1260 -556.105 -1259.1 -557 -1258 -557H1313C1314.1 -557 1315 -556.105 1315 -555V421C1315 422.105 1314.1 423 1313 423H-1258C-1259.1 423 -1260 422.105 -1260 421V-555Z" fill="#F8F8F9"/>
<path d="M-1258 -557V-556H1313V-557V-558H-1258V-557ZM1315 -555H1314V421H1315H1316V-555H1315ZM1313 423V422H-1258V423V424H1313V423ZM-1260 421H-1259V-555H-1260H-1261V421H-1260ZM-1258 423V422C-1258.55 422 -1259 421.552 -1259 421H-1260H-1261C-1261 422.657 -1259.66 424 -1258 424V423ZM1315 421H1314C1314 421.552 1313.55 422 1313 422V423V424C1314.66 424 1316 422.657 1316 421H1315ZM1313 -557V-556C1313.55 -556 1314 -555.552 1314 -555H1315H1316C1316 -556.657 1314.66 -558 1313 -558V-557ZM-1258 -557V-558C-1259.66 -558 -1261 -556.657 -1261 -555H-1260H-1259C-1259 -555.552 -1258.55 -556 -1258 -556V-557Z" fill="black" fill-opacity="0.1"/>
<g id="Icons / info steps gen">
<rect x="-19.5" y="-269.5" width="82" height="396" rx="4.5" stroke="#9747FF" stroke-dasharray="10 5"/>
<g id="Property 1=Sparks">
<g id="Group">
<path id="Vector" d="M13.7641 13.0176C13.7641 13.0176 15.0724 17.9994 17.1811 19.528C19.2901 21.0568 23.9391 21.042 23.9391 21.042C23.9391 21.042 19.2576 22.5191 17.1811 24.6757C15.0001 26.9408 13.7641 31.9582 13.7641 31.9582C13.7641 31.9582 12.3746 26.9419 10.8028 24.6757C8.91572 21.9552 4.50037 21.4205 4.50037 21.4205C4.50037 21.4205 8.69372 21.0568 10.8028 19.528C12.9115 17.9994 13.7641 13.0176 13.7641 13.0176Z" fill="#27272A"/>
<path id="Vector_2" d="M24.1509 4.78564C24.1509 4.78564 25.0958 8.42102 26.619 9.5365C28.1424 10.6522 31.5003 10.6413 31.5003 10.6413C31.5003 10.6413 28.1189 11.7192 26.619 13.293C25.0437 14.9458 24.1509 18.6073 24.1509 18.6073C24.1509 18.6073 23.1472 14.9466 22.0119 13.293C20.6488 11.3077 17.4596 10.9175 17.4596 10.9175C17.4596 10.9175 20.4885 10.6522 22.0119 9.5365C23.535 8.42102 24.1509 4.78564 24.1509 4.78564Z" fill="#3F3F46"/>
<path id="Vector_3" d="M26.7161 24.312C26.7161 24.312 27.2181 26.2163 28.0273 26.8006C28.8366 27.3849 30.6205 27.3793 30.6205 27.3793C30.6205 27.3793 28.8241 27.9439 28.0273 28.7682C27.1904 29.634 26.7161 31.5519 26.7161 31.5519C26.7161 31.5519 26.1829 29.6344 25.5798 28.7682C24.8557 27.7283 23.1614 27.524 23.1614 27.524C23.1614 27.524 24.7705 27.3849 25.5798 26.8006C26.3889 26.2163 26.7161 24.312 26.7161 24.312Z" fill="#71717A"/>
</g>
</g>
</g>
</g>
</svg>
