<svg width="24" height="24" viewBox="0 0 24 24" fill="none" xmlns="http://www.w3.org/2000/svg">
<rect width="24" height="24" fill="#F5F5F5"/>
<g id="06 Icons">
<path d="M-1490 -786C-1490 -787.105 -1489.1 -788 -1488 -788H1083C1084.1 -788 1085 -787.105 1085 -786V190C1085 191.105 1084.1 192 1083 192H-1488C-1489.1 192 -1490 191.105 -1490 190V-786Z" fill="#F8F8F9"/>
<path d="M-1488 -788V-787H1083V-788V-789H-1488V-788ZM1085 -786H1084V190H1085H1086V-786H1085ZM1083 192V191H-1488V192V193H1083V192ZM-1490 190H-1489V-786H-1490H-1491V190H-1490ZM-1488 192V191C-1488.55 191 -1489 190.552 -1489 190H-1490H-1491C-1491 191.657 -1489.66 193 -1488 193V192ZM1085 190H1084C1084 190.552 1083.55 191 1083 191V192V193C1084.66 193 1086 191.657 1086 190H1085ZM1083 -788V-787C1083.55 -787 1084 -786.552 1084 -786H1085H1086C1086 -787.657 1084.66 -789 1083 -789V-788ZM-1488 -788V-789C-1489.66 -789 -1491 -787.657 -1491 -786H-1490H-1489C-1489 -786.552 -1488.55 -787 -1488 -787V-788Z" fill="black" fill-opacity="0.1"/>
<g id="Icons / yoga">
<rect x="-129.5" y="-572.5" width="183" height="692" rx="4.5" fill="white"/>
<rect x="-129.5" y="-572.5" width="183" height="692" rx="4.5" stroke="#9747FF" stroke-dasharray="10 5"/>
<g id="Property 1=camp">
<path id="Tent" d="M15 2L3 23H8L12 15.5L16 23H21L9 2" stroke="#3F3F46" stroke-width="1.2"/>
</g>
</g>
</g>
</svg>
